#!OML:ASF H:\GeneralSubjects\Female5\Project 1\Capture day 1\Session 1\Female5.ASF
:FULLY-SPECIFIED
:DEGREES
1021
root -2.63493 16.1749 13.172 -350.255 -73.5806 -0.433082
lowerback 15.3458 1.88108 -1.68334
upperback -13.6123 2.594 3.69536
thorax -25.4911 1.76467 4.53467
lowerneck -11.4461 -1.02329 -4.27981
upperneck 41.1488 -1.06692 -2.40423
head 16.8799 -2.03675 -0.673136
rclavicle 4.53229e-014 3.97569e-014
rhumerus -60.5642 27.8783 -95.258
rradius 38.5045
rwrist -13.8906
rhand -28.484 -17.8377
rfingers 7.12502
rthumb -1.85332 -47.8094
lclavicle 4.53229e-014 3.97569e-014
lhumerus -65.5986 3.20959 72.9028
lradius 35.7879
lwrist -7.59962
lhand -27.1098 22.2428
lfingers 7.12502
lthumb -0.526155 52.2219
rfemur -12.1003 6.30967 28.7821
rtibia 21.2341
rfoot -25.5734 -16.5913
rtoes -31.173
lfemur -12.4459 -12.9936 -27.9536
ltibia 16.4862
lfoot -21.6667 -0.656184
ltoes -33.078
1022
root -2.65342 16.2135 13.2511 -349.82 -75.6798 -0.581989
lowerback 15.2339 2.07892 -1.5225
upperback -13.6361 2.86438 3.48495
thorax -25.4421 1.80716 4.08759
lowerneck -11.6051 -0.953764 -4.08844
upperneck 40.8603 -0.986802 -2.4434
head 16.7552 -1.97548 -0.705061
rclavicle -1.59028e-015 2.62396e-014
rhumerus -60.7568 28.4736 -96.4964
rradius 38.3017
rwrist -14.1555
rhand -28.2933 -18.6371
rfingers 7.12502
rthumb -1.66917 -48.6103
lclavicle -1.59028e-015 2.62396e-014
lhumerus -65.7848 2.75364 73.2627
lradius 35.4114
lwrist -7.11533
lhand -27.1437 22.2009
lfingers 7.12502
lthumb -0.55887 52.1799
rfemur -12.2715 6.43706 28.8607
rtibia 18.3828
rfoot -25.7493 -17.4126
rtoes -30.392
lfemur -12.1071 -13.3147 -28.0279
ltibia 15.999
lfoot -22.0468 -0.407639
ltoes -32.1085
1023
root -2.67692 16.2431 13.3282 -349.501 -77.5534 -0.650291
lowerback 15.0453 2.24338 -1.32543
upperback -13.6676 3.09357 3.26312
thorax -25.3354 1.82472 3.62436
lowerneck -11.654 -0.909842 -3.93257
upperneck 40.6349 -0.967691 -2.44506
head 16.64 -1.94336 -0.725089
rclavicle 1.33186e-014 -1.51076e-014
rhumerus -60.9198 29.0095 -97.5095
rradius 38.0824
rwrist -14.0887
rhand -27.9697 -19.2551
rfingers 7.12502
rthumb -1.35662 -49.2305
lclavicle 1.33186e-014 -1.51076e-014
lhumerus -65.9334 2.45145 73.4524
lradius 34.8483
lwrist -6.90087
lhand -27.0235 22.7162
lfingers 7.12502
lthumb -0.442816 52.6955
rfemur -12.3939 6.54493 28.9166
rtibia 16.3837
rfoot -24.7028 -20.1059
rtoes -27.397
lfemur -11.7572 -13.8433 -28.1151
ltibia 15.4666
lfoot -22.1184 -0.121298
ltoes -31.5874
1024
root -2.70647 16.2671 13.3948 -348.521 -79.2175 -1.47391
lowerback 14.8986 2.38563 -1.00056
upperback -13.6937 3.33856 3.10008
thorax -25.2447 1.83511 3.15338
lowerneck -11.7406 -0.853008 -3.87838
upperneck 40.3015 -0.919612 -2.34258
head 16.4785 -1.89295 -0.671502
rclavicle 3.97569e-014 2.38542e-014
rhumerus -61.3184 29.2276 -98.3026
rradius 38.0745
rwrist -13.7211
rhand -27.6702 -19.2589
rfingers 7.12502
rthumb -1.06734 -49.2359
lclavicle 3.97569e-014 2.38542e-014
lhumerus -66.2708 1.72506 73.9669
lradius 34.6372
lwrist -6.71912
lhand -26.1751 23.1927
lfingers 7.12502
lthumb 0.376644 53.1721
rfemur -12.3504 7.10011 29.0962
rtibia 15.2797
rfoot -24.1478 -22.4156
rtoes -20.4345
lfemur -11.3671 -14.6069 -28.0024
ltibia 14.9911
lfoot -22.3207 0.120737
ltoes -31.6733
1025
root -2.73822 16.2863 13.4499 -347.861 -80.7368 -2.04379
lowerback 14.8627 2.52561 -0.764697
upperback -13.7163 3.55216 2.90093
thorax -25.2263 1.84574 2.70079
lowerneck -11.6764 -0.81586 -3.93312
upperneck 39.9351 -0.92424 -2.13042
head 16.2661 -1.86513 -0.55662
rclavicle -4.19436e-014 -3.97569e-015
rhumerus -61.8871 29.1724 -99.0322
rradius 38.2336
rwrist -13.6322
rhand -27.7073 -18.9539
rfingers 7.12502
rthumb -1.10323 -48.9308
lclavicle -4.19436e-014 -3.97569e-015
lhumerus -66.0837 1.42064 74.0905
lradius 33.8578
lwrist -7.53538
lhand -24.7821 23.2684
lfingers 7.12502
lthumb 1.72203 53.2412
rfemur -12.115 7.94839 29.0997
rtibia 14.6382
rfoot -24.1762 -22.0613
rtoes -12.6276
lfemur -11.0367 -15.416 -27.9405
ltibia 14.864
lfoot -22.5548 0.0676895
ltoes -31.6195
1026
root -2.76756 16.3002 13.4986 -348.125 -82.0735 -1.6724
lowerback 14.8463 2.64403 -0.628773
upperback -13.752 3.69774 2.64514
thorax -25.2355 1.83959 2.26348
lowerneck -11.7457 -0.798697 -3.605
upperneck 39.7536 -0.887813 -2.38723
head 16.1811 -1.8344 -0.718262
rclavicle -5.96354e-016 -2.46493e-014
rhumerus -62.3503 29.0735 -99.6025
rradius 38.3683
rwrist -13.5687
rhand -27.7508 -18.8828
rfingers 7.12502
rthumb -1.14523 -48.8595
lclavicle -5.96354e-016 -2.46493e-014
lhumerus -65.986 1.13106 74.0653
lradius 33.1886
lwrist -8.14485
lhand -23.8776 23.3495
lfingers 7.12502
lthumb 2.59554 53.3134
rfemur -11.5785 8.90261 28.8496
rtibia 13.5747
rfoot -23.4338 -21.2198
rtoes -8.38496
lfemur -10.8307 -16.2909 -27.9709
ltibia 15.0925
lfoot -22.6315 -0.278606
ltoes -31.0088
1027
root -2.79683 16.3093 13.5383 -349.176 -83.2822 -0.479163
lowerback 14.7559 2.74835 -0.580088
upperback -13.8066 3.79221 2.36468
thorax -25.2188 1.82536 1.86948
lowerneck -11.835 -0.867712 -3.73174
upperneck 39.8161 -1.01772 -2.27584
head 16.2392 -1.90234 -0.674348
rclavicle -4.17448e-015 -1.43125e-014
rhumerus -62.6741 28.9112 -99.8828
rradius 38.539
rwrist -13.4011
rhand -27.1668 -19.049
rfingers 7.12502
rthumb -0.581216 -49.028
lclavicle -4.17448e-015 -1.43125e-014
lhumerus -65.8162 0.942853 73.9309
lradius 32.6079
lwrist -8.53097
lhand -23.5691 23.2453
lfingers 7.12502
lthumb 2.89352 53.2054
rfemur -10.6296 10.2485 28.4648
rtibia 11.6073
rfoot -22.2484 -21.4348
rtoes -7.97547
lfemur -10.7575 -17.2079 -28.0081
ltibia 15.4565
lfoot -22.6653 -0.693479
ltoes -29.979
1028
root -2.82714 16.3122 13.5771 -350.469 -84.3819 0.948111
lowerback 14.604 2.84514 -0.511224
upperback -13.8725 3.88772 2.12696
thorax -25.1764 1.81412 1.51826
lowerneck -11.7742 -0.831103 -3.6718
upperneck 39.7067 -0.995388 -2.2628
head 16.1647 -1.88451 -0.672622
rclavicle 4.17448e-014 1.82882e-014
rhumerus -62.8659 28.6325 -99.9203
rradius 38.6954
rwrist -13.5457
rhand -25.9944 -19.4963
rfingers 7.12502
rthumb 0.551159 -49.4754
lclavicle 4.17448e-014 1.82882e-014
lhumerus -65.6982 0.715797 73.8981
lradius 32.2595
lwrist -8.69346
lhand -23.0669 22.8308
lfingers 7.12502
lthumb 3.37845 52.7838
rfemur -9.47528 11.4387 28.0777
rtibia 9.23994
rfoot -21.2316 -21.5839
rtoes -8.22632
lfemur -10.7403 -17.9838 -28.1171
ltibia 15.7077
lfoot -22.5003 -1.22891
ltoes -29.1496
1029
root -2.85431 16.3128 13.612 -348.773 -85.3191 -0.65903
lowerback 14.5517 2.91897 -0.223163
upperback -13.9409 4.04098 2.03218
thorax -25.2081 1.80588 1.18732
lowerneck -11.7497 -0.817195 -3.59587
upperneck 39.6651 -0.963373 -2.38089
head 16.1352 -1.88114 -0.732631
rclavicle -4.37326e-015 -1.98785e-014
rhumerus -63.1258 28.2903 -99.8364
rradius 38.7802
rwrist -13.3133
rhand -25.2741 -19.8383
rfingers 7.12502
rthumb 1.24686 -49.8144
lclavicle -4.37326e-015 -1.98785e-014
lhumerus -65.7169 0.370659 74.0664
lradius 32.2682
lwrist -8.46236
lhand -22.8017 22.8291
lfingers 7.12502
lthumb 3.63463 52.7779
rfemur -8.42391 12.3248 28.0793
rtibia 7.16313
rfoot -20.6486 -21.6508
rtoes -7.79506
lfemur -10.6779 -18.7023 -27.9503
ltibia 15.764
lfoot -22.2107 -2.08618
ltoes -28.9213
1030
root -2.88211 16.3138 13.641 -342.562 -86.062 -6.76491
lowerback 14.476 2.93858 0.312428
upperback -14.0173 4.19244 1.98663
thorax -25.2133 1.75806 0.77515
lowerneck -11.8665 -0.799351 -3.52107
upperneck 39.7728 -0.979764 -2.35373
head 16.2197 -1.88231 -0.744021
rclavicle -4.17448e-014 -8.74653e-015
rhumerus -63.5143 28.0623 -99.835
rradius 38.7522
rwrist -12.7353
rhand -25.5596 -19.1424
rfingers 7.12502
rthumb 0.97107 -49.1199
lclavicle -4.17448e-014 -8.74653e-015
lhumerus -65.6309 0.167348 73.9652
lradius 32.2313
lwrist -8.37261
lhand -22.9655 23.3041
lfingers 7.12502
lthumb 3.47642 53.2555
rfemur -7.57066 13.2524 28.4898
rtibia 5.50727
rfoot -20.5462 -21.9078
rtoes -6.7375
lfemur -10.557 -19.4933 -27.4837
ltibia 15.6903
lfoot -22.1879 -3.02673
ltoes -29.8818
1031
root -2.91121 16.3097 13.6735 -332.943 -86.6526 -16.1823
lowerback 14.1809 2.93759 0.942354
upperback -14.0724 4.33506 1.96667
thorax -25.0159 1.69712 0.354783
lowerneck -11.8295 -0.779223 -3.4019
upperneck 39.7073 -1.00861 -2.32082
head 16.1735 -1.87434 -0.754094
rclavicle 5.76476e-015 -1.11319e-014
rhumerus -63.5896 28.0672 -99.765
rradius 38.4889
rwrist -12.7227
rhand -26.0374 -18.2621
rfingers 7.12502
rthumb 0.50962 -48.2412
lclavicle 5.76476e-015 -1.11319e-014
lhumerus -65.3582 0.0955573 73.7961
lradius 32.0341
lwrist -8.35477
lhand -23.2683 23.5367
lfingers 7.12502
lthumb 3.18399 53.4927
rfemur -6.90821 14.1807 29.0162
rtibia 4.09424
rfoot -20.7197 -22.1482
rtoes -5.65337
lfemur -10.4361 -20.2889 -27.0497
ltibia 15.6623
lfoot -22.7693 -3.81522
ltoes -31.0943
1032
root -2.93804 16.2951 13.7051 -317.331 -87.1181 -31.5382
lowerback 13.7877 2.98761 1.52745
upperback -14.1003 4.54888 2.04901
thorax -24.7224 1.6926 0.0647984
lowerneck -12.1412 -0.730453 -3.58516
upperneck 39.7026 -1.06557 -1.78602
head 16.2516 -1.84856 -0.499977
rclavicle -9.74045e-015 -1.27222e-014
rhumerus -63.312 28.0389 -99.2962
rradius 38.1381
rwrist -12.8075
rhand -26.1375 -17.9515
rfingers 7.12502
rthumb 0.412924 -47.9308
lclavicle -9.74045e-015 -1.27222e-014
lhumerus -64.9395 0.11275 73.7288
lradius 31.772
lwrist -8.09839
lhand -23.6398 23.6562
lfingers 7.12502
lthumb 2.82525 53.6173
rfemur -6.43193 15.3598 29.6595
rtibia 2.92258
rfoot -20.9351 -22.6105
rtoes -5.12911
lfemur -10.2456 -21.0059 -26.5833
ltibia 15.3876
lfoot -24.1041 -4.10957
ltoes -31.5633
1033
root -2.96527 16.2726 13.7351 -296.652 -87.401 -52.0096
lowerback 13.4967 3.06981 1.99143
upperback -14.1881 4.76789 2.09694
thorax -24.5967 1.70334 -0.20117
lowerneck -12.5086 -0.810106 -3.51582
upperneck 40.2961 -1.24491 -1.80466
head 16.6635 -1.94489 -0.578696
rclavicle -2.04748e-014 8.74653e-015
rhumerus -63.095 27.8142 -98.7762
rradius 37.7534
rwrist -12.7115
rhand -26.0932 -17.9343
rfingers 7.12502
rthumb 0.455771 -47.9136
lclavicle -2.04748e-014 8.74653e-015
lhumerus -64.7225 0.039485 73.5904
lradius 31.6471
lwrist -7.85238
lhand -24.136 24.0114
lfingers 7.12502
lthumb 2.34606 53.9782
rfemur -6.01402 16.5197 30.2222
rtibia 1.96648
rfoot -21.0165 -22.9314
rtoes -4.74885
lfemur -9.76917 -21.7259 -26.2827
ltibia 14.71
lfoot -26.0072 -3.77468
ltoes -31.6557
1034
root -2.98932 16.2501 13.7672 -274.638 -87.5167 -73.8829
lowerback 13.3978 3.14308 2.26116
upperback -14.2919 4.91919 2.06864
thorax -24.6428 1.70586 -0.43331
lowerneck -12.9835 -0.849006 -3.3119
upperneck 40.9269 -1.41721 -1.78639
head 17.132 -2.01095 -0.669446
rclavicle -2.48481e-014 -3.57812e-014
rhumerus -62.7901 27.5795 -98.2669
rradius 37.1681
rwrist -12.6442
rhand -25.9428 -18.394
rfingers 7.12502
rthumb 0.600996 -48.3729
lclavicle -2.48481e-014 -3.57812e-014
lhumerus -64.6953 -0.228366 73.5522
lradius 31.779
lwrist -7.61087
lhand -24.721 24.0959
lfingers 7.12502
lthumb 1.78103 54.0682
rfemur -5.62389 17.3362 30.5109
rtibia 1.16274
rfoot -20.7415 -23.0614
rtoes -5.53778
lfemur -9.07809 -22.3762 -26.3406
ltibia 13.9821
lfoot -27.9478 -3.24101
ltoes -31.6662
